<svg width="36" height="44" viewBox="0 0 36 44" fill="none" xmlns="http://www.w3.org/2000/svg">
<path d="M26.26 7.267C25.459 3.481 23.164.9 22.13.383c-2.323-1.161-3.097.689-4.13.689s-1.807-1.85-4.13-.689C12.837.9 10.542 3.481 9.74 7.267c-.804 3.786 8.26.689 8.26.689s9.064 3.097 8.26-.689Z" fill="#FFD24F"/>
<path d="M18 18.587c8.744 0 15.833-2.62 15.833-5.852 0-3.231-7.089-5.851-15.833-5.851S2.167 9.504 2.167 12.735c0 3.232 7.089 5.852 15.833 5.852Z" fill="#FFBE1E"/>
<path d="M8.684 16.972c-1.032-.258-1.708.293-1.708 1.377 0 1.434 1.388 4.948 2.847 2.753 1.459-2.194-1.139-4.13-1.139-4.13ZM27.14 16.972c1.127-.258 1.865.293 1.865 1.377 0 1.434-1.515 4.948-3.107 2.753-1.593-2.194 1.243-4.13 1.243-4.13Z" fill="#FFE1B2"/>
<path d="M10.437 29.49c1.54-.992 1.367-3.942 1.367-4.63h12.392c0 .688-.191 3.638 1.348 4.63L18 37.94l-7.563-8.45Z" fill="#FFD7A3"/>
<path d="m22.819 32.432 2.725-2.943c-1.54-.99-1.348-3.94-1.348-4.63H11.804c.89 2.557 6.77 6.942 11.015 7.573Z" fill="#FDC88E"/>
<path d="M33.833 44c1.14 0 2.065-.925 2.065-2.065v-4.102c0-3.029-2.36-6.262-5.245-7.185l-4.307-1.379c-2.317 1.772-5.628 4.19-8.346 4.19s-6.03-2.418-8.346-4.19l-4.307 1.379C2.462 31.57.102 34.803.102 37.833v4.102c0 1.14.924 2.065 2.065 2.065h31.666Z" fill="#FF6953"/>
<path d="M35.853 42.36h-1.068v-1.447h1.113V39.86h-1.113v-1.448h1.113v-.579c0-.158-.01-.316-.022-.475h-1.091v-1.447h.81a7.846 7.846 0 0 0-.407-1.054h-.403v-.755a8.659 8.659 0 0 0-1.384-1.746h-1.117v-.91a6.57 6.57 0 0 0-1.63-.799l-2.478-.792h-.895v-.287l-.935-.299c-.038.03-.08.06-.119.09v.496h-.655c-.578.431-1.2.878-1.846 1.306v1.195H22.28v-.304c-1.214.684-2.46 1.207-3.627 1.358h.072v1.447h-1.448V33.41h.072c-1.166-.15-2.413-.674-3.627-1.358v.304h-1.447V31.16a40.384 40.384 0 0 1-1.846-1.306h-.655v-.495l-.12-.091-.934.3v.286h-.895l-2.477.792a6.562 6.562 0 0 0-1.63.8v.909H2.598c-.532.516-1 1.107-1.384 1.746v.755H.812a7.878 7.878 0 0 0-.406 1.054h.81v1.447H.123a6.02 6.02 0 0 0-.022.475v.58h1.113v1.447H.102v1.053h1.113v1.448H.147c.086.41.294.773.583 1.054h.485v.343c.286.15.607.242.952.242h.102v-.585h1.448V44H4.77v-.585h1.447V44h1.054v-.585h1.447V44h1.054v-.585h1.447V44h1.054v-.585h1.447V44h1.054v-.585h1.448V44h1.054v-.585h1.447V44h1.054v-.585h1.447V44h1.054v-.585h1.447V44h1.054v-.585h1.448V44h1.053v-.585h1.448V44h1.054v-.585h1.447V44h1.054v-.585h1.447V44h.103c.345 0 .665-.093.951-.242v-.343h.486c.288-.281.496-.645.582-1.054Zm-32.137 0H2.27v-1.447h1.447v1.448Zm0-2.5H2.27v-1.448h1.447v1.448Zm0-2.502H2.27v-1.447h1.447v1.447Zm0-2.5H2.27V33.41h1.447v1.447Zm2.502 7.503H4.77v-1.448h1.448v1.448Zm0-2.501H4.77v-1.448h1.448v1.448Zm0-2.502H4.77v-1.447h1.448v1.447Zm0-2.5H4.77V33.41h1.448v1.447Zm0-2.502H4.77v-1.447h1.448v1.447Zm2.5 10.005H7.273v-1.448h1.447v1.448Zm0-2.501H7.273v-1.448h1.447v1.448Zm0-2.502H7.273v-1.447h1.447v1.447Zm0-2.5H7.273V33.41h1.447v1.447Zm0-2.502H7.273v-1.447h1.447v1.447ZM11.22 42.36H9.773v-1.448h1.447v1.448Zm0-2.501H9.773v-1.448h1.447v1.448Zm0-2.502H9.773v-1.447h1.447v1.447Zm0-2.5H9.773V33.41h1.447v1.447Zm0-2.502H9.773v-1.447h1.447v1.447Zm2.501 10.005h-1.447v-1.448h1.447v1.448Zm0-2.501h-1.447v-1.448h1.447v1.448Zm0-2.502h-1.447v-1.447h1.447v1.447Zm0-2.5h-1.447V33.41h1.447v1.447Zm2.502 7.503h-1.448v-1.448h1.447v1.448Zm0-2.501h-1.448v-1.448h1.447v1.448Zm0-2.502h-1.448v-1.447h1.447v1.447Zm0-2.5h-1.448V33.41h1.447v1.447Zm2.5 7.503h-1.447v-1.448h1.448v1.448Zm0-2.501h-1.447v-1.448h1.448v1.448Zm0-2.502h-1.447v-1.447h1.448v1.447Zm2.502 5.003h-1.448v-1.448h1.448v1.448Zm0-2.501h-1.448v-1.448h1.448v1.448Zm0-2.502h-1.448v-1.447h1.448v1.447Zm0-2.5h-1.448V33.41h1.448v1.447Zm2.501 7.503H22.28v-1.448h1.447v1.448Zm0-2.501H22.28v-1.448h1.447v1.448Zm0-2.502H22.28v-1.447h1.447v1.447Zm0-2.5H22.28V33.41h1.447v1.447Zm2.501 7.503H24.78v-1.448h1.447v1.448Zm0-2.501H24.78v-1.448h1.447v1.448Zm0-2.502H24.78v-1.447h1.447v1.447Zm0-2.5H24.78V33.41h1.447v1.447Zm0-2.502H24.78v-1.447h1.447v1.447Zm2.501 10.005h-1.447v-1.448h1.447v1.448Zm0-2.501h-1.447v-1.448h1.447v1.448Zm0-2.502h-1.447v-1.447h1.447v1.447Zm0-2.5h-1.447V33.41h1.447v1.447Zm0-2.502h-1.447v-1.447h1.447v1.447ZM31.23 42.36h-1.448v-1.448h1.448v1.448Zm0-2.501h-1.448v-1.448h1.448v1.448Zm0-2.502h-1.448v-1.447h1.448v1.447Zm0-2.5h-1.448V33.41h1.448v1.447Zm0-2.502h-1.448v-1.447h1.448v1.447Zm2.5 10.005h-1.447v-1.448h1.448v1.448Zm0-2.501h-1.447v-1.448h1.448v1.448Zm0-2.502h-1.447v-1.447h1.448v1.447Zm0-2.5h-1.447V33.41h1.448v1.447Z" fill="#E95F43"/>
<path d="m18 33.458-2.872 2.872c-.3.3-.795.26-1.044-.082l-5.033-6.92 1.603-1.604a.688.688 0 0 1 .947-.025L18 33.458ZM18 33.458l2.872 2.872c.3.3.795.26 1.044-.082l5.033-6.92-1.603-1.604a.688.688 0 0 0-.948-.025L18 33.458Z" fill="#FFBE1E"/>
<path d="M8.792 12.317c-.161.974-.17 2.145-.17 3.536 0 5.513 3.089 12.391 9.378 12.391 6.29 0 9.378-6.878 9.378-12.39 0-1.392-.009-2.563-.17-3.537-2.522-.85-5.723-1.36-9.208-1.36-3.485 0-6.685.51-9.208 1.36Z" fill="#FFE1B2"/>
<path d="M27.413 13.43c-.55-.707-1.142-1.433-1.142-1.433v.688c.171 6.239-2.049 8.95-2.049 8.95l-2.828.316a29.825 29.825 0 0 1-6.638 0l-2.829-.317s-2.22-2.71-2.049-8.949v-.688s-.591.726-1.142 1.434c-.144.614-.374 1.281-.374 2.014 0 5.513 3.3 13.46 9.713 13.46 6.413 0 9.563-7.947 9.563-13.46 0-.733-.08-1.4-.225-2.014Zm-11.387 9.84h4.098c.562 0 1.044.342 1.253.83-.756.332-1.918.546-3.227.546-1.382 0-2.597-.239-3.347-.603a1.36 1.36 0 0 1 1.223-.773Z" fill="#A7795E"/>
<path d="M18.366 22.657c0-.909-.882-1.115-1.463-.894-1.065.404-2.237 1.53-3.227.834 0 0 .344 1.454.925 1.454 1.162 0 3.765.152 3.765-1.394Z" fill="#543D38"/>
<path d="M18.087 22.657c0-.909.882-1.115 1.463-.894 1.065.404 2.238 1.53 3.227.834 0 0-.344 1.454-.925 1.454-1.162 0-3.765.152-3.765-1.394Z" fill="#543D38"/>
<path d="m29.703 30.254-2.754-.882v8.471c0 .315-.209.594-.515.669-2.33.574-5.253.917-8.434.917-3.18 0-6.104-.343-8.434-.917a.684.684 0 0 1-.515-.669v-8.47l-2.754.88V44h23.406V30.254Z" fill="#C55F54"/>
<path d="m8.409 17.061 1.858.343s.726-4.071 1.116-5.762a24.735 24.735 0 0 0-2.846.732c-.166.974-.175 2.145-.175 3.537 0 .377.017.762.047 1.15ZM27.591 17.061l-1.858.343s-.727-4.071-1.116-5.762c1.016.202 1.973.446 2.846.732.166.974.175 2.145.175 3.537 0 .377-.017.762-.047 1.15ZM22.044 13.323l1.652-1.88A32.861 32.861 0 0 0 18 10.957c-1.23 0-2.423.067-3.565.186 1.08-.074 5.329.499 7.61 2.18Z" fill="#543D38"/>
</svg>